<svg width="100" height="100" viewBox="0 0 100 100" fill="none" xmlns="http://www.w3.org/2000/svg">
<g id="Layer 1">
<path id="Vector" fill-rule="evenodd" clip-rule="evenodd" d="M31.6948 78.7006C31.4073 78.8525 31.0788 78.9083 30.7572 78.8599C30.4357 78.8114 30.1382 78.6612 29.9083 78.4313C29.6783 78.2013 29.5281 77.9038 29.4797 77.5823C29.4312 77.2608 29.487 76.9322 29.6389 76.6447L38.0887 68.1949L38.6027 67.6809C38.8716 67.3386 39.2094 67.0567 39.5942 66.8534C39.9791 66.6502 40.4024 66.5301 40.8367 66.501C41.2709 66.4719 41.7065 66.5345 42.115 66.6846C42.5235 66.8348 42.8959 67.0691 43.208 67.3725L33.7508 76.8297L31.6948 78.7006ZM22.9572 66.9408L32.4144 57.4835C32.7178 57.7956 32.9521 58.168 33.1023 58.5765C33.2524 58.985 33.315 59.4206 33.2859 59.8548C33.2568 60.2891 33.1367 60.7124 32.9335 61.0973C32.7302 61.4821 32.4483 61.8199 32.106 62.0888L31.3453 62.8495L23.2656 70.9292C22.9781 71.0811 22.6495 71.137 22.328 71.0885C22.0064 71.04 21.7089 70.8898 21.479 70.6599C21.2491 70.43 21.0989 70.1324 21.0504 69.8109C21.0019 69.4894 21.0577 69.1608 21.2096 68.8733L23.06 67.023L22.9572 66.9408ZM41.1315 58.8815C40.9408 58.6922 40.8106 58.4504 40.7574 58.1869C40.7042 57.9235 40.7305 57.6501 40.833 57.4016C40.9354 57.1531 41.1093 56.9406 41.3326 56.7911C41.556 56.6415 41.8187 56.5617 42.0875 56.5617C42.3563 56.5617 42.619 56.6415 42.8424 56.7911C43.0657 56.9406 43.2397 57.1531 43.3421 57.4016C43.4445 57.6501 43.4708 57.9235 43.4176 58.1869C43.3645 58.4504 43.2343 58.6922 43.0435 58.8815C42.7893 59.1339 42.4457 59.2755 42.0875 59.2755C41.7293 59.2755 41.3857 59.1339 41.1315 58.8815ZM78.6521 31.764C78.804 31.4765 78.8598 31.1479 78.8113 30.8264C78.7628 30.5049 78.6126 30.2073 78.3827 29.9774C78.1528 29.7475 77.8553 29.5973 77.5337 29.5488C77.2122 29.5003 76.8836 29.5561 76.5961 29.7081L68.0641 38.0551L67.5501 38.5691C67.2078 38.8379 66.9259 39.1757 66.7226 39.5606C66.5194 39.9454 66.3993 40.3687 66.3702 40.803C66.3411 41.2373 66.4037 41.6728 66.5538 42.0813C66.704 42.4898 66.9383 42.8622 67.2417 43.1743L76.6989 33.7171L78.6521 31.764ZM66.8922 23.0263L57.435 32.4835C57.747 32.7869 58.1194 33.0213 58.528 33.1714C58.9365 33.3216 59.372 33.3841 59.8063 33.355C60.2405 33.326 60.6638 33.2059 61.0487 33.0026C61.4336 32.7994 61.7714 32.5174 62.0402 32.1752L62.8009 31.4145L70.8807 23.3347C71.0913 23.2234 71.2728 23.0643 71.4106 22.87C71.5485 22.6758 71.6388 22.4519 71.6743 22.2164C71.7098 21.9809 71.6895 21.7403 71.6151 21.5141C71.5406 21.2878 71.4141 21.0822 71.2457 20.9138C71.0773 20.7454 70.8716 20.6189 70.6454 20.5444C70.4192 20.47 70.1786 20.4497 69.9431 20.4852C69.7076 20.5207 69.4837 20.611 69.2894 20.7488C69.0952 20.8867 68.936 21.0682 68.8248 21.2788L66.9744 23.1291L66.8922 23.0263ZM58.6685 41.2212C58.4791 41.0304 58.2374 40.9002 57.9739 40.8471C57.7104 40.7939 57.4371 40.8202 57.1886 40.9226C56.9401 41.0251 56.7276 41.199 56.578 41.4223C56.4285 41.6457 56.3487 41.9084 56.3487 42.1772C56.3487 42.446 56.4285 42.7087 56.578 42.9321C56.7276 43.1554 56.9401 43.3293 57.1886 43.4318C57.4371 43.5342 57.7104 43.5605 57.9739 43.5073C58.2374 43.4542 58.4791 43.324 58.6685 43.1332C58.9209 42.879 59.0625 42.5354 59.0625 42.1772C59.0625 41.819 58.9209 41.4754 58.6685 41.2212ZM43.4341 51.6036H42.6118H42.3239C40.3184 51.6087 38.3621 50.983 36.7318 49.8149C38.3559 48.7435 40.2666 48.1896 42.2119 48.2263C44.1573 48.263 46.0457 48.8886 47.6282 50.0205C46.3943 50.84 44.9865 51.3609 43.5164 51.5419M50.0953 47.759C48.8876 46.1097 48.2365 44.1186 48.2365 42.0744C48.2365 40.0302 48.8876 38.0391 50.0953 36.3898C51.3031 38.0391 51.9542 40.0302 51.9542 42.0744C51.9542 44.1186 51.3031 46.1097 50.0953 47.759ZM31.9827 21.2582C31.8714 21.0476 31.7122 20.8661 31.518 20.7283C31.3237 20.5904 31.0998 20.5001 30.8643 20.4646C30.6288 20.4291 30.3883 20.4494 30.162 20.5238C29.9358 20.5983 29.7302 20.7248 29.5617 20.8932C29.3933 21.0617 29.2668 21.2673 29.1924 21.4935C29.1179 21.7197 29.0976 21.9603 29.1331 22.1958C29.1686 22.4313 29.259 22.6552 29.3968 22.8495C29.5346 23.0437 29.7162 23.2029 29.9267 23.3141L38.3766 31.764L38.8906 32.278C39.1594 32.6202 39.4972 32.9021 39.8821 33.1054C40.2669 33.3087 40.6902 33.4288 41.1245 33.4578C41.5588 33.4869 41.9943 33.4244 42.4028 33.2742C42.8113 33.1241 43.1837 32.8897 43.4958 32.5863L34.0386 23.1291L31.9827 21.2582ZM23.245 33.0181L32.7022 42.4342C33.0056 42.1221 33.24 41.7497 33.3901 41.3412C33.5402 40.9327 33.6028 40.4971 33.5737 40.0629C33.5446 39.6286 33.4246 39.2053 33.2213 38.8205C33.018 38.4356 32.7361 38.0978 32.3938 37.8289L31.6332 37.0682L23.5534 28.9885C23.2659 28.8366 22.9373 28.7808 22.6158 28.8292C22.2943 28.8777 21.9967 29.0279 21.7668 29.2578C21.5369 29.4878 21.3867 29.7853 21.3382 30.1068C21.2897 30.4283 21.3455 30.7569 21.4975 31.0444L23.3478 32.8947L23.245 33.0181ZM41.4399 41.2418C41.2491 41.4311 41.1189 41.6729 41.0658 41.9364C41.0126 42.1999 41.0389 42.4732 41.1413 42.7217C41.2438 42.9702 41.4177 43.1827 41.641 43.3322C41.8644 43.4818 42.1271 43.5616 42.3959 43.5616C42.6647 43.5616 42.9274 43.4818 43.1508 43.3322C43.3741 43.1827 43.548 42.9702 43.6505 42.7217C43.7529 42.4732 43.7792 42.1999 43.726 41.9364C43.6729 41.6729 43.5426 41.4311 43.3519 41.2418C43.0977 40.9894 42.7541 40.8478 42.3959 40.8478C42.0377 40.8478 41.6941 40.9894 41.4399 41.2418ZM50.0336 52.5699C51.1128 54.1628 51.6897 56.0426 51.6897 57.9667C51.6897 59.8907 51.1128 61.7706 50.0336 63.3634C48.9545 61.7706 48.3776 59.8907 48.3776 57.9667C48.3776 56.0426 48.9545 54.1628 50.0336 52.5699ZM63.2327 50.0822C61.6398 51.1614 59.7599 51.7382 57.8359 51.7382C55.9118 51.7382 54.032 51.1614 52.4391 50.0822C54.032 49.003 55.9118 48.4262 57.8359 48.4262C59.7599 48.4262 61.6398 49.003 63.2327 50.0822ZM68.3108 78.8651C68.4221 79.0757 68.5812 79.2572 68.7755 79.395C68.9697 79.5329 69.1936 79.6232 69.4291 79.6587C69.6646 79.6942 69.9052 79.6739 70.1314 79.5995C70.3577 79.525 70.5633 79.3985 70.7317 79.2301C70.9001 79.0617 71.0266 78.8561 71.1011 78.6298C71.1755 78.4036 71.1958 78.163 71.1603 77.9275C71.1248 77.692 71.0345 77.4681 70.8966 77.2738C70.7588 77.0796 70.5773 76.9204 70.3667 76.8092L61.9169 68.3593L61.4029 67.8454C61.134 67.5031 60.7962 67.2212 60.4114 67.0179C60.0265 66.8146 59.6032 66.6945 59.1689 66.6655C58.7347 66.6364 58.2991 66.6989 57.8906 66.8491C57.4821 66.9992 57.1097 67.2336 56.7976 67.537L66.2549 76.9942L68.3108 78.8651ZM77.0484 67.1052L67.5912 57.648C67.2923 57.9568 67.0607 58.3243 66.9112 58.7272C66.7617 59.1301 66.6974 59.5597 66.7226 59.9888C66.7477 60.4178 66.8616 60.837 67.0571 61.2197C67.2527 61.6024 67.5256 61.9403 67.8585 62.2121L68.6808 62.9934L76.7606 71.0731C77.0481 71.2251 77.3767 71.2809 77.6982 71.2324C78.0197 71.1839 78.3173 71.0337 78.5472 70.8038C78.7771 70.5739 78.9273 70.2763 78.9758 69.9548C79.0243 69.6333 78.9685 69.3047 78.8165 69.0172L76.9662 67.1669L77.0484 67.1052ZM58.8535 58.8815C59.0443 58.6922 59.1745 58.4504 59.2277 58.1869C59.2808 57.9235 59.2545 57.6501 59.1521 57.4016C59.0497 57.1531 58.8758 56.9406 58.6524 56.7911C58.4291 56.6415 58.1663 56.5617 57.8975 56.5617C57.6288 56.5617 57.366 56.6415 57.1427 56.7911C56.9193 56.9406 56.7454 57.1531 56.643 57.4016C56.5406 57.6501 56.5143 57.9235 56.5674 58.1869C56.6206 58.4504 56.7508 58.6922 56.9415 58.8815C57.1957 59.1339 57.5394 59.2755 57.8975 59.2755C58.2557 59.2755 58.5994 59.1339 58.8535 58.8815ZM38.2532 75.3289C38.1013 75.6164 38.0455 75.945 38.094 76.2665C38.1424 76.588 38.2927 76.8855 38.5226 77.1155C38.7525 77.3454 39.05 77.4956 39.3715 77.5441C39.6931 77.5925 40.0217 77.5367 40.3091 77.3848L49.8692 67.8454L56.2425 74.2187C56.4481 74.4243 58.2985 71.7516 56.6126 70.2919L52.0279 65.625C53.7635 63.4067 54.7046 60.6702 54.7006 57.8536C54.7042 56.629 54.5311 55.4103 54.1866 54.2352C55.3541 54.5847 56.5658 54.7647 57.7845 54.7697C60.6011 54.7738 63.3376 53.8326 65.5558 52.097L75.3009 61.8215C75.4122 62.0321 75.5714 62.2136 75.7656 62.3515C75.9598 62.4893 76.1837 62.5796 76.4192 62.6151C76.6547 62.6506 76.8953 62.6303 77.1216 62.5559C77.3478 62.4814 77.5534 62.3549 77.7218 62.1865C77.8902 62.0181 78.0168 61.8125 78.0912 61.5862C78.1656 61.36 78.1859 61.1194 78.1504 60.8839C78.1149 60.6484 78.0246 60.4245 77.8868 60.2303C77.7489 60.036 77.5674 59.8769 77.3568 59.7656L67.8585 50L74.0262 43.8322C74.2318 43.6266 71.5591 41.7763 70.0994 43.4827L65.5558 48.0263C63.357 46.3547 60.6699 45.4518 57.9078 45.4564C56.7324 45.4599 55.5632 45.6259 54.4333 45.9498C55.0559 43.9612 55.179 41.8499 54.7917 39.8024C54.4045 37.7549 53.5188 35.8344 52.2129 34.2105L61.6907 24.7944C61.8426 24.5069 61.8984 24.1783 61.85 23.8568C61.8015 23.5353 61.6513 23.2378 61.4214 23.0078C61.1914 22.7779 60.8939 22.6277 60.5724 22.5792C60.2509 22.5308 59.9223 22.5866 59.6348 22.7385L50.2598 32.1135L44.092 25.9457C43.8864 25.7401 42.0361 28.4128 43.7425 29.8725L48.0188 34.2105C46.2067 36.4648 45.2265 39.2746 45.2434 42.1669C45.2397 43.3915 45.4128 44.6102 45.7573 45.7853C43.8617 45.2341 41.8636 45.1329 39.9219 45.4898C37.9803 45.8467 36.1488 46.6519 34.5731 47.8413L25.0131 38.3223C24.7256 38.1704 24.397 38.1146 24.0755 38.1631C23.754 38.2116 23.4564 38.3618 23.2265 38.5917C22.9966 38.8216 22.8464 39.1192 22.7979 39.4407C22.7494 39.7622 22.8053 40.0908 22.9572 40.3783L32.291 49.8355L25.856 56.2705C25.6504 56.4761 28.3231 58.3264 29.7828 56.62L34.2236 52.1792L34.6759 52.4465C36.7502 54.0434 39.3173 54.8652 41.9333 54.7697H42.4062C43.5817 54.7675 44.7511 54.6015 45.8807 54.2763C45.4896 55.4653 45.2748 56.7051 45.2434 57.9564C45.2388 60.7185 46.1417 63.4056 47.8133 65.6044L38.2532 75.3289ZM22.7927 22.7385L23.0188 22.5123C23.3121 22.2688 23.6861 22.1442 24.0668 22.1632C24.4476 22.1823 24.8073 22.3435 25.0748 22.6151L34.9637 32.5863C35.56 33.1826 36.0328 33.6349 36.4234 34.1077C38.4794 35.773 40.8848 35.6702 43.7014 35.7319L42.6734 38.713C41.3431 38.8795 39.9941 38.8169 38.685 38.5279C39.0634 39.8776 39.1957 41.2844 39.0756 42.6809L36.0945 43.7089C36.0945 40.8923 36.0945 38.4868 34.4703 36.4515C33.9563 35.9992 33.4629 35.4852 32.7639 34.7862L32.0032 33.9227L22.8544 24.7738C22.5828 24.5063 22.4215 24.1466 22.4025 23.7659C22.3834 23.3852 22.508 23.0112 22.7516 22.7179M76.8017 22.3273L77.5624 23.088C77.6909 23.37 77.7303 23.6845 77.6751 23.9894C77.62 24.2944 77.4731 24.5752 77.254 24.7944L68.1052 33.9432L67.3445 34.8067C66.6455 35.5057 66.1521 36.0197 65.6381 36.472C63.9934 38.5279 64.0756 40.9334 64.0139 43.7294L61.0534 42.7015C60.8864 41.3712 60.949 40.0221 61.2384 38.713C59.9292 39.002 58.5802 39.0645 57.2499 38.898L56.222 35.9169C59.0386 35.9169 61.444 35.9169 63.4794 34.2927C63.8906 33.8199 64.3429 33.3882 64.9391 32.7919L74.8897 22.8413C75.1089 22.6222 75.3897 22.4753 75.6947 22.4202C75.9996 22.3651 76.3142 22.4044 76.5961 22.5329M77.583 76.8092L76.3289 78.0633C76.091 78.1005 75.8477 78.0808 75.619 78.0058C75.3903 77.9307 75.1826 77.8025 75.0131 77.6315L65.0624 67.6809C64.4662 67.0847 63.9934 66.6324 63.6027 66.1595C61.5468 64.4942 59.1414 64.597 56.3453 64.5353L57.3733 61.5542C58.7036 61.3869 60.0527 61.4495 61.3618 61.7393C61.0728 60.4301 61.0102 59.0811 61.1767 57.7508L64.1578 56.7228C64.1578 59.5394 64.1578 61.9449 65.782 64.0008C66.296 64.4531 66.7894 64.9671 67.4884 65.6661L68.2491 66.5296L77.4185 75.3289C77.594 75.4996 77.7251 75.7105 77.8003 75.9435C77.8756 76.1764 77.8927 76.4242 77.8503 76.6652M23.2861 77.7549L22.2376 76.7064C22.1661 76.4471 22.1645 76.1736 22.2331 75.9135C22.3018 75.6535 22.4381 75.4163 22.6282 75.2261L31.7771 66.0773L32.5378 65.2138C33.2368 64.5148 33.7302 64.0008 34.2442 63.5485C35.9095 61.4926 35.8067 59.0871 35.8684 56.2911L38.8494 57.319C39.016 58.6494 38.9534 59.9984 38.6644 61.3075C39.9669 61.0205 41.3088 60.9579 42.6323 61.1225L43.6603 64.1036C40.8437 64.1036 38.4383 64.1036 36.4029 65.7278C36.0123 66.2006 35.5394 66.6324 34.9432 67.2491L24.6841 77.3848C24.4939 77.575 24.2567 77.7113 23.9967 77.7799C23.7367 77.8485 23.4631 77.847 23.2039 77.7754M14.7952 23.6431V28.8034C14.2743 29.6806 13.7809 30.5715 13.3149 31.4761C10.8577 36.3542 9.39695 41.6729 9.01802 47.1217C8.99348 47.4652 9.10641 47.8044 9.33196 48.0646C9.55752 48.3249 9.87722 48.4849 10.2207 48.5094C10.5642 48.534 10.9034 48.421 11.1637 48.1955C11.4239 47.9699 11.5839 47.6502 11.6085 47.3067C11.9162 42.8577 12.9945 38.496 14.7952 34.4161V73.7458C10.3172 67.1236 7.80795 59.3677 7.55831 51.3774H7.39384C7.02851 51.3774 6.67815 51.2323 6.41982 50.974C6.1615 50.7157 6.01637 50.3653 6.01637 50C6.01933 40.4968 9.09918 31.2501 14.7952 23.6431ZM76.4728 14.7821H71.2096C70.3324 14.2475 69.4415 13.7541 68.5369 13.3018C63.6604 10.8375 58.3416 9.36974 52.8914 8.98438C52.5451 8.95712 52.2022 9.06852 51.9381 9.29407C51.674 9.51962 51.5103 9.84085 51.4831 10.1871C51.4558 10.5333 51.5672 10.8762 51.7928 11.1403C52.0183 11.4044 52.3395 11.5681 52.6858 11.5954C57.1429 11.9077 61.5118 12.993 65.597 14.8026H26.2466C32.8654 10.2908 40.6299 7.75258 48.6356 7.48357C48.6356 7.48357 48.6356 7.48357 48.6356 7.33965C48.6356 7.15701 48.6719 6.9762 48.7424 6.80772C48.8129 6.63925 48.9162 6.48647 49.0463 6.35829C49.1764 6.23011 49.3307 6.12908 49.5002 6.06107C49.6697 5.99307 49.851 5.95946 50.0336 5.96218C59.5373 5.96218 68.785 9.04233 76.3906 14.741M85.2516 76.4185V71.2171C85.7861 70.3399 86.2795 69.449 86.7318 68.5444C89.189 63.6663 90.6498 58.3476 91.0287 52.8988C91.0532 52.5526 90.9392 52.2108 90.7118 51.9486C90.4843 51.6864 90.162 51.5253 89.8157 51.5008C89.4695 51.4763 89.1277 51.5903 88.8655 51.8177C88.6033 52.0452 88.4422 52.3675 88.4177 52.7138C88.1053 57.1709 87.0201 61.5398 85.2104 65.625V26.2541C89.7138 32.8616 92.2517 40.6105 92.5295 48.6019C92.8949 48.6019 93.2452 48.7471 93.5035 49.0054C93.7619 49.2637 93.907 49.6141 93.907 49.9794C93.9411 59.4784 90.8972 68.7328 85.231 76.3569M23.5534 85.2179H28.796C29.6732 85.7524 30.5709 86.2458 31.4892 86.6981C36.3673 89.1553 41.686 90.6161 47.1348 90.995C47.314 91.0263 47.4979 91.0194 47.6743 90.9749C47.8507 90.9304 48.0158 90.8492 48.1587 90.7366C48.3016 90.624 48.4193 90.4826 48.5039 90.3215C48.5885 90.1604 48.6383 89.9833 48.6499 89.8018C48.6615 89.6202 48.6348 89.4382 48.5713 89.2676C48.5079 89.0971 48.4093 88.9418 48.2819 88.812C48.1545 88.6821 48.0011 88.5805 47.8318 88.5138C47.6625 88.4472 47.481 88.417 47.2993 88.4251C42.842 88.1136 38.473 87.0283 34.3881 85.2179H73.759C67.1431 89.6932 59.3945 92.2023 51.4111 92.4547C51.4111 92.4547 51.4111 92.4547 51.4111 92.5986C51.4111 92.7813 51.3748 92.9621 51.3043 93.1305C51.2338 93.299 51.1305 93.4518 51.0004 93.58C50.8703 93.7082 50.716 93.8092 50.5465 93.8772C50.377 93.9452 50.1957 93.9788 50.0131 93.9761C40.5115 93.9835 31.2636 90.9105 23.6562 85.2179M50.0131 99.9999C61.5807 99.9969 72.7894 95.9832 81.7294 88.6425C90.6695 81.3019 96.7877 71.0885 99.0417 59.7427C101.296 48.3968 99.546 36.6204 94.0907 26.42C88.6354 16.2195 79.812 8.22615 69.124 3.8018C58.4359 -0.622559 46.5445 -1.20415 35.4757 2.15609C24.4069 5.51633 14.8456 12.6105 8.42096 22.2299C1.9963 31.8493 -0.894259 43.3988 0.241791 54.9104C1.37784 66.4221 6.47021 77.1838 14.6512 85.3618C19.2901 90.0116 24.8023 93.6986 30.871 96.2107C36.9396 98.7229 43.445 100.011 50.0131 99.9999Z" fill="#9FD9D8"/>
</g>
</svg>
